<?xml version="1.0" encoding="utf-8"?>
<!-- Generator: Adobe Illustrator 18.0.0, SVG Export Plug-In . SVG Version: 6.00 Build 0)  -->
<!DOCTYPE svg PUBLIC "-//W3C//DTD SVG 1.1//EN" "http://www.w3.org/Graphics/SVG/1.1/DTD/svg11.dtd">
<svg version="1.1" id="Laag_1" xmlns="http://www.w3.org/2000/svg" xmlns:xlink="http://www.w3.org/1999/xlink" x="0px" y="0px"
	 width="544.3px" height="93.1px" viewBox="0 0 544.3 93.1" enable-background="new 0 0 544.3 93.1" xml:space="preserve">
<polygon fill="#FFFFFF" points="20.5,43.8 20.5,52.2 32.6,48.5 "/>
<path fill="#009CC1" d="M50,28.9c0-1.8-0.7-3.4-1.6-4.5c-0.9-1.1-2-1.9-2.9-2.3l-5-2c2.3-2.1,3.8-5.2,3.8-8.5C44.2,5.2,39,0,32.7,0
	c-0.1,0-0.1,0-0.1,0c0,0-0.1,0-0.1,0c0,0,0,0,0,0c-1.8,0-3.5,0.4-5,1.1C25.6,2,24.2,3.2,23,4.8c-1.4,1.9-2.2,4.3-2.2,6.8
	c0,0.3,0,0.7,0,1c0,0,0,0.1,0,0.1c0,0.3,0.1,0.6,0.1,0.9c0,0,0,0.1,0,0.1c0.1,0.3,0.1,0.6,0.2,0.9c0,0,0,0.1,0,0.1
	c0.1,0.3,0.2,0.6,0.3,0.9c-1,0.3-2.2,0.7-3.3,1.3c-1,0.5-1.9,1.1-2.7,1.9c-0.8,0.8-1.3,1.9-1.3,3.2v6.9L1.7,24.6l0,0h0l0,0
	c-0.1,0-0.1,0-0.2,0c0,0-0.1,0-0.1,0c-0.1,0-0.2,0-0.3,0c0,0,0,0,0,0c-0.1,0-0.2,0-0.2,0.1c0,0,0,0,0,0c0,0-0.1,0-0.1,0.1
	c0,0-0.1,0-0.1,0.1c-0.1,0.1-0.2,0.1-0.2,0.2C0.1,25.2,0,25.5,0,25.8v19.9c0,0,0,0.1,0,0.1c0,0,0,0,0,0v0v0c0,0,0,0,0,0
	C0,46,0,46,0,46.1v0v0.5c0,0.3,0.1,0.6,0.4,0.9c0,0,0,0,0,0c0,0,0.1,0.1,0.1,0.1c0,0,0,0,0.1,0c0,0,0.1,0,0.1,0.1c0,0,0,0,0.1,0
	c0,0,0.1,0,0.1,0l16.5,6l0,30.5c0,0.5,0.3,1,0.8,1.2l9.1,3.7V66.8c0-0.5,0.6-0.9,1.2-0.9c0.7,0,1.2,0.4,1.2,0.9v23.3L37,93
	c0.2,0.1,0.3,0.1,0.5,0.1h0c0,0,0.1,0,0.1,0l9.6-3.6V52.3l1.2-0.4c0.1,0,0.2-0.1,0.3-0.1c0.5-0.2,0.8-0.5,1-0.8
	c0.2-0.4,0.4-0.8,0.4-1.3V29.7C50,29.5,50,28.9,50,28.9z M32.7,3c4.6,0,8.3,3.7,8.3,8.3c0,4.6-3.7,8.3-8.3,8.3c-3.4,0-6.3-2.1-7.6-5
	c0,0,0,0,0-0.1c-0.2-0.5-0.4-1-0.5-1.5c0,0,0,0,0,0c-0.1-0.3-0.1-0.5-0.1-0.8c0,0,0-0.1,0-0.1c0-0.3,0-0.5,0-0.8
	C24.5,6.7,28.1,3,32.7,3z M20.5,52.2v-8.5l12.1,4.8L20.5,52.2z M40.1,44.7l-5.9,1.8l-13.7-5.4V32c0-0.5-0.3-1-0.8-1.2l-2.9-1V22
	c0-0.5,0.2-1,0.7-1.5c0.4-0.5,1.1-0.9,1.8-1.3c0,0,0,0,0,0l7.8,3.1c0,0.1-0.1,0.3-0.1,0.4v18.2c0,1,0.8,1.8,1.8,1.8
	c1,0,1.8-0.8,1.8-1.8V23.7l5.8,2.3c2.1,0.8,3.8,3.4,3.8,5.7V44.7z M44.8,51.1C44.8,51.1,44.8,51.1,44.8,51.1
	C44.9,51.1,44.9,51.1,44.8,51.1C44.8,51.1,44.8,51.1,44.8,51.1z"/>
<path fill="#FFFFFF" d="M34.2,46.5l5.9-1.8V31.7c0-2.3-1.7-4.9-3.8-5.7l-5.8-2.3v17.2c0,1-0.8,1.8-1.8,1.8c-1,0-1.8-0.8-1.8-1.8
	V22.7c0-0.1,0-0.3,0.1-0.4l-7.8-3.1c0,0,0,0-0.1,0c0,0,0,0-0.1,0c-0.7,0.4-1.3,0.8-1.7,1.3c-0.5,0.5-0.7,1-0.7,1.5v7.8l2.9,1
	c0.5,0.2,0.8,0.6,0.8,1.2v9.1 M28.7,49.7l3.9-1.2L28.7,49.7L28.7,49.7z"/>
<path fill="#222840" d="M66.4,84.9l-3-9.3c8-1.6,18.7-2.1,18.7-17.4V17.7h11.3v39.6C93.4,77.1,78.4,81.6,66.4,84.9z"/>
<path fill="#222840" d="M120.2,76.8c-14.8,0-20.2-10.1-20.2-21.9c0-11.4,5.5-21.5,20.2-21.5c14.8,0,20.1,9.6,20.1,21.5
	C140.3,66.6,134.8,76.8,120.2,76.8z M120.2,41.2c-6.4,0-9.8,3.7-9.8,13.7c0,9.2,3,14.1,9.8,14.1c6.3,0,9.7-4.2,9.7-14.1
	C129.9,44.9,127,41.2,120.2,41.2z"/>
<path fill="#222840" d="M167.2,76.7c-5.1,0-8.3-3.2-9.6-5.3l-1.6,4.1h-9.3c0.6-4.8,1.1-7.3,1.1-12.5V16.8h10.1v23.3
	c2.3-3.2,5.7-6.5,10.7-6.5c12.3,0,16.9,10,16.9,21.4C185.5,66.6,179.5,76.7,167.2,76.7z M166.8,41.3c-4.4,0-6.9,4-9,7.9v14
	c1.8,3.8,4.4,5.7,7.9,5.7c5.1,0,9.6-3,9.6-13.9C175.2,44,171.3,41.3,166.8,41.3z"/>
<path fill="#009CC1" d="M204.4,32.7v2h9.3v7.8h-9.3v33.1h-10.1V42.5h-6.2v-7.8h6.2v-1.2c0-12.5,11.8-17.6,20.2-18.3l2.5,8.3
	C209,24.3,204.4,26.8,204.4,32.7z"/>
<path fill="#009CC1" d="M229.3,59c0.8,6.5,4.2,10.2,9.8,10.2c3.8,0,8.5-1.3,12.8-3.5l3.3,7.8c-4.9,2.2-11.2,3.2-16.8,3.2
	c-13.2,0-19.8-9.8-19.8-21.2c0-9.5,4.3-22,19.4-22c14.2,0,19.3,8.4,19.3,25.5H229.3z M237.9,41.3c-3.3,0-8.3,2-8.7,10.5h18.3
	C247.2,44,243.2,41.3,237.9,41.3z"/>
<path fill="#009CC1" d="M273.6,59c0.8,6.5,4.2,10.2,9.8,10.2c3.8,0,8.5-1.3,12.8-3.5l3.3,7.8c-4.9,2.2-11.2,3.2-16.8,3.2
	c-13.2,0-19.8-9.8-19.8-21.2c0-9.5,4.3-22,19.4-22c14.2,0,19.3,8.4,19.3,25.5H273.6z M282.3,41.3c-3.3,0-8.3,2-8.7,10.5H292
	C291.5,44,287.6,41.3,282.3,41.3z"/>
<path fill="#009CC1" d="M336.9,75.6l-1.6-4.1c-1.3,2.1-4.5,5.3-9.6,5.3c-13.7,0-18.3-10.1-18.3-21.8c0-11.4,5.2-21.4,16.9-21.4
	c5,0,8.4,3.3,10.7,6.5V16.8h10.1v46.2c0,5.2,0.4,7.7,1.1,12.5H336.9z M335.2,49.2c-2.1-3.8-4.7-7.9-9-7.9c-4.6,0-8.4,2.7-8.4,13.8
	c0,10.8,3.4,13.9,9.6,13.9c3.5,0,6.1-1.9,7.9-5.7V49.2z"/>
<g>
	<path fill="#222840" stroke="#FFFFFF" stroke-width="0.2131" stroke-miterlimit="10" d="M376.4,76.7c-1.9,0-3.2-1.2-3.8-2.1
		l-0.5,1.7h-2.7c0.2-1.8,0.4-2.7,0.4-4.7V54.4h3v8.8c0.8-1.2,2.2-2.5,4.1-2.5c4.5,0,6.2,3.7,6.2,7.9C383.1,73,381,76.7,376.4,76.7z
		 M376.5,63c-2.1,0-3.1,1.9-3.8,3.1v6.1c0.6,1.4,1.9,2.2,3.3,2.2c2.4,0,4-1.7,4-5.7C380,64.3,378.5,63,376.5,63z"/>
	<path fill="#222840" stroke="#FFFFFF" stroke-width="0.2131" stroke-miterlimit="10" d="M393.7,78.7c-0.9,2.5-2.2,4.1-5.2,5.1
		l-1-2.5c1.8-0.5,2.6-1.3,2.9-2.2l1.3-3.5l-6.1-14.6h3.2l4.4,11.2l3.8-11.2h3.1L393.7,78.7z"/>
	<path fill="#222840" stroke="#FFFFFF" stroke-width="0.2131" stroke-miterlimit="10" d="M418.5,79c-3.5-0.9-6.1-3.1-6.1-6.5v-9.2
		H410v-2.3h2.5v-4h3v4h3.5v2.3h-3.5v9.2c0,2.1,1.6,3.2,4.1,3.7L418.5,79z"/>
	<path fill="#222840" stroke="#FFFFFF" stroke-width="0.2131" stroke-miterlimit="10" d="M424.4,69.9c0.2,2.8,1.4,4.6,4,4.6
		c1.5,0,3-0.5,4.6-1.3l1,2.3c-1.8,0.8-3.9,1.2-5.9,1.2c-4.8,0-6.9-3.6-6.9-7.9c0-3.5,1.4-8.2,6.8-8.2c5.4,0,6.9,3.4,6.9,9.2H424.4z
		 M428,63c-1.8,0-3.5,1.3-3.7,4.6h7.6C431.9,64.4,430.5,63,428,63z"/>
	<path fill="#222840" stroke="#FFFFFF" stroke-width="0.2131" stroke-miterlimit="10" d="M447.7,76.3l-3.7-5.6l-3.9,5.6h-3.2
		l5.5-7.7l-5.1-7.5h3.4l3.4,5.3l3.5-5.3h3.1l-5.2,7.3l5.4,7.9H447.7z"/>
	<path fill="#222840" stroke="#FFFFFF" stroke-width="0.2131" stroke-miterlimit="10" d="M460.8,79c-3.5-0.9-6.1-3.1-6.1-6.5v-9.2
		h-2.5v-2.3h2.5v-4h3v4h3.5v2.3h-3.5v9.2c0,2.1,1.6,3.2,4.1,3.7L460.8,79z"/>
	<path fill="#222840" stroke="#FFFFFF" stroke-width="0.2131" stroke-miterlimit="10" d="M473.6,76.3l-6.3-7.8v7.8h-3V54.4h3v12.8
		l5.7-6.1h3.2l-6.2,6.6l7,8.6H473.6z"/>
	<path fill="#222840" stroke="#FFFFFF" stroke-width="0.2131" stroke-miterlimit="10" d="M482,69.9c0.2,2.8,1.4,4.6,4,4.6
		c1.5,0,3-0.5,4.6-1.3l1,2.3c-1.8,0.8-3.9,1.2-5.9,1.2c-4.8,0-6.9-3.6-6.9-7.9c0-3.5,1.4-8.2,6.8-8.2c5.4,0,6.9,3.4,6.9,9.2H482z
		 M485.6,63c-1.8,0-3.5,1.3-3.7,4.6h7.6C489.4,64.4,488,63,485.6,63z"/>
	<path fill="#222840" stroke="#FFFFFF" stroke-width="0.2131" stroke-miterlimit="10" d="M504.3,63.9c-0.6-0.4-1.3-0.9-2.3-0.9
		c-1.9,0-2.6,2.7-3,3.7v9.7h-3V64.5c0-1.5-0.3-2.6-0.4-3.4h2.7l0.5,2.7c0.5-1,1.9-3.1,3.6-3.1c1.2,0,2,0.3,2.8,0.8L504.3,63.9z"/>
	<path fill="#222840" stroke="#FFFFFF" stroke-width="0.2131" stroke-miterlimit="10" d="M517.4,76.3v-9.6c0-1.9-0.3-3.7-2.9-3.7
		c-1.8,0-3,1.6-3.6,3v10.3h-3v-12c0-1.3-0.3-2.1-0.4-3.2h2.7l0.5,2.1c0.6-0.7,1.9-2.6,4.2-2.6c4.3,0,5.4,2.6,5.4,6.1v9.6H517.4z"/>
	<path fill="#222840" stroke="#FFFFFF" stroke-width="0.2131" stroke-miterlimit="10" d="M527.1,69.9c0.2,2.8,1.4,4.6,4,4.6
		c1.5,0,3-0.5,4.6-1.3l1,2.3c-1.8,0.8-3.9,1.2-5.9,1.2c-4.8,0-6.9-3.6-6.9-7.9c0-3.5,1.4-8.2,6.8-8.2c5.4,0,6.9,3.4,6.9,9.2H527.1z
		 M530.7,63c-1.8,0-3.5,1.3-3.7,4.6h7.6C534.5,64.4,533.2,63,530.7,63z"/>
	<path fill="#222840" stroke="#FFFFFF" stroke-width="0.2131" stroke-miterlimit="10" d="M541.2,76.3V54.4h3v21.9H541.2z"/>
</g>
</svg>
