<svg xmlns="http://www.w3.org/2000/svg" xmlns:xlink="http://www.w3.org/1999/xlink" x="0px" y="0px"
	 viewBox="0 0 442.8 77.3" enable-background="new 0 0 442.8 77.3" xml:space="preserve" width="125" height="20">
	<path fill="#0097d1" d="M29,77.3C17.6,74.4,7.8,67.1,7.8,55.1V29.4H0v-9h7.8V7.9h11.6v12.5h11v9h-11V56c0,6.7,4.9,9.5,12.7,11.4
		L29,77.3z"/>
	<path fill="#0097d1" d="M49.6,48.4c0.9,7.5,4.8,11.7,11.3,11.7c4.4,0,9.7-1.5,14.7-4l3.8,8.9c-5.6,2.6-12.8,3.7-19.3,3.7
		c-15.2,0-22.7-11.3-22.7-24.3c0-10.9,4.9-25.2,22.2-25.2c16.3,0,22.1,9.6,22.1,29.2H49.6z M59.6,28.1c-3.8,0-9.5,2.3-9.9,12h21
		C70.1,31.2,65.6,28.1,59.6,28.1z"/>
	<path fill="#0097d1" d="M119.7,67.4l-10-15.6L98.9,67.4H86.7l16.9-23.7L87.9,20.5h13l9.2,14.7l9.6-14.7h12.1l-16,22.5l16.8,24.4
		H119.7z"/>
	<path fill="#0097d1" d="M167.4,77.3c-11.4-2.9-21.2-10.3-21.2-22.3V29.4h-7.8v-9h7.8V7.9h11.6v12.5h11v9h-11V56
		c0,6.7,4.9,9.5,12.7,11.4L167.4,77.3z"/>
	<path fill="#0097d1" d="M208.8,67.4l-17-23.5v23.5h-11.6V0h11.6v39l15.4-18.5h12.5l-17,20.3l19.5,26.6H208.8z"/>
	<path fill="#0097d1" d="M240,48.4c0.9,7.5,4.8,11.7,11.3,11.7c4.4,0,9.7-1.5,14.7-4l3.8,8.9c-5.6,2.6-12.8,3.7-19.3,3.7
		c-15.2,0-22.7-11.3-22.7-24.3c0-10.9,4.9-25.2,22.3-25.2c16.3,0,22.1,9.6,22.1,29.2H240z M250,28.1c-3.8,0-9.5,2.3-9.9,12h21
		C260.5,31.2,256,28.1,250,28.1z"/>
	<path fill="#0097d1" d="M311.5,30.9c-1.7-1.3-4.2-2.9-6.8-2.9c-5.4,0-8.4,8.6-9.5,11.4v28h-11.6V31c0-4.6-0.9-8.1-1.2-10.5H293
		l1.8,8c1.6-3,6.7-9.4,11.7-9.4c3.9,0,6.2,0.8,8.9,2.3L311.5,30.9z"/>
	<path fill="#0097d1" d="M352.7,67.4v-30c0-4.6-0.4-9.3-7.3-9.3c-4.8,0-8.1,4.4-10.3,8.8v30.6h-11.6V30.5c0-3.9-0.8-6.7-1.2-9.9H333
		l1.8,6.2c1.9-2.1,5.9-7.6,12.5-7.6c13.7,0,16.9,8,16.9,18.8v29.5H352.7z"/>
	<path fill="#0097d1" d="M387.7,48.4c0.9,7.5,4.8,11.7,11.3,11.7c4.4,0,9.7-1.5,14.7-4l3.8,8.9c-5.6,2.6-12.8,3.7-19.3,3.7
		c-15.2,0-22.7-11.3-22.7-24.3c0-10.9,4.9-25.2,22.3-25.2c16.3,0,22.1,9.6,22.1,29.2H387.7z M397.6,28.1c-3.8,0-9.5,2.3-9.9,12h21
		C408.2,31.2,403.7,28.1,397.6,28.1z"/>
	<path fill="#0097d1" d="M431.2,67.4V0h11.6v67.4H431.2z"/>
</svg>
